<svg width="80" height="25" viewBox="0 0 80 25" fill="none" xmlns="http://www.w3.org/2000/svg">
<g id="LogosSpotify 1" clip-path="url(#clip0_647_206)">
<path id="Vector" d="M12.4461 0C5.5725 0 0 5.57234 0 12.4459C0 19.3198 5.5725 24.8917 12.4461 24.8917C19.3205 24.8917 24.8923 19.3198 24.8923 12.4459C24.8923 5.57281 19.3205 0.000625 12.4459 0.000625L12.4461 0ZM18.1539 17.9506C18.1008 18.0377 18.031 18.1134 17.9486 18.1734C17.8662 18.2335 17.7728 18.2767 17.6737 18.3005C17.5745 18.3244 17.4717 18.3285 17.371 18.3126C17.2702 18.2967 17.1737 18.2611 17.0867 18.2078C14.1645 16.4228 10.4858 16.0186 6.15344 17.0084C5.95283 17.0541 5.74232 17.0182 5.56817 16.9086C5.39401 16.7991 5.27047 16.6249 5.22469 16.4244C5.20187 16.3251 5.19887 16.2222 5.21586 16.1218C5.23285 16.0213 5.26949 15.9252 5.32368 15.8389C5.37788 15.7526 5.44857 15.6778 5.5317 15.6189C5.61482 15.56 5.70876 15.518 5.80813 15.4955C10.5492 14.4122 14.6159 14.8786 17.8967 16.8836C17.9837 16.9368 18.0594 17.0065 18.1194 17.0889C18.1794 17.1714 18.2226 17.2648 18.2464 17.3639C18.2703 17.463 18.2744 17.5659 18.2585 17.6666C18.2426 17.7673 18.207 17.8638 18.1537 17.9508L18.1539 17.9506ZM19.6773 14.5617C19.3962 15.0183 18.7989 15.1625 18.3425 14.8816C14.9972 12.8253 9.89734 12.2297 5.94031 13.4309C5.69399 13.5055 5.42816 13.4793 5.20114 13.3581C4.97412 13.2369 4.80446 13.0305 4.72937 12.7844C4.65512 12.5381 4.68153 12.2724 4.80282 12.0456C4.9241 11.8188 5.13036 11.6492 5.37641 11.5742C9.89656 10.2027 15.5158 10.867 19.3577 13.2278C19.8139 13.5087 19.9581 14.1062 19.6772 14.5619L19.6773 14.5617ZM19.808 11.0328C15.7969 8.65031 9.17844 8.43125 5.34859 9.59375C4.73359 9.78031 4.08328 9.43313 3.89703 8.81812C3.80743 8.52268 3.83881 8.20374 3.98429 7.93143C4.12976 7.65911 4.37742 7.45571 4.67281 7.36594C9.06922 6.03125 16.3778 6.28906 20.9961 9.03078C21.1277 9.10865 21.2427 9.21171 21.3344 9.33408C21.4261 9.45644 21.4928 9.5957 21.5306 9.74388C21.5685 9.89205 21.5767 10.0462 21.5548 10.1976C21.533 10.349 21.4815 10.4945 21.4033 10.6259C21.0764 11.1791 20.36 11.3614 19.8086 11.033L19.808 11.0328ZM33.8617 11.4894C31.7127 10.9769 31.3308 10.6173 31.3308 9.86156C31.3308 9.1475 32.0025 8.66703 33.0027 8.66703C33.9717 8.66703 34.9319 9.03203 35.9395 9.78312C35.9692 9.80578 36.0078 9.81484 36.045 9.80891C36.0637 9.80624 36.0817 9.79977 36.0978 9.78991C36.1139 9.78005 36.1278 9.767 36.1387 9.75156L37.188 8.2725C37.2087 8.24319 37.2175 8.20707 37.2125 8.1715C37.2076 8.13594 37.1892 8.10361 37.1613 8.08109C35.9619 7.11906 34.6123 6.65141 33.0339 6.65141C30.7139 6.65141 29.0925 8.04375 29.0925 10.0361C29.0925 12.1725 30.4909 12.9291 32.9077 13.513C34.9631 13.9866 35.3108 14.3833 35.3108 15.0927C35.3108 15.8789 34.6092 16.3678 33.4798 16.3678C32.2255 16.3678 31.2014 15.9444 30.057 14.9544C30.0285 14.9303 29.9918 14.9181 29.9545 14.9203C29.936 14.9216 29.9178 14.9266 29.9012 14.935C29.8846 14.9434 29.8698 14.955 29.8578 14.9692L28.6808 16.3692C28.6571 16.3973 28.6453 16.4334 28.6478 16.4701C28.6504 16.5067 28.667 16.5409 28.6942 16.5655C30.0258 17.7545 31.6636 18.3817 33.4322 18.3817C35.9322 18.3817 37.5477 17.0158 37.5477 14.9009C37.552 13.1164 36.4836 12.1281 33.8662 11.4914L33.8617 11.4894ZM43.2042 9.37C42.1208 9.37 41.232 9.79687 40.4978 10.6716V9.68719C40.4978 9.60938 40.4353 9.54609 40.3581 9.54609H38.4334C38.3962 9.5463 38.3606 9.56126 38.3344 9.58768C38.3083 9.6141 38.2936 9.64983 38.2938 9.68703V20.6259C38.2938 20.7031 38.3563 20.767 38.4334 20.767H40.3581C40.3953 20.7667 40.4309 20.7517 40.4571 20.7253C40.4832 20.6989 40.4979 20.6631 40.4978 20.6259V17.1733C41.232 17.9952 42.1208 18.398 43.2041 18.398C45.2181 18.398 47.2572 16.848 47.2572 13.8845C47.2602 10.9205 45.2209 9.36984 43.2056 9.36984L43.2042 9.37ZM45.0189 13.8845C45.0189 15.3928 44.09 16.4466 42.7583 16.4466C41.443 16.4466 40.4502 15.3453 40.4502 13.8845C40.4502 12.4236 41.443 11.3225 42.7583 11.3225C44.0677 11.3225 45.0189 12.3997 45.0189 13.8845ZM52.4813 9.37C49.8878 9.37 47.8561 11.3669 47.8561 13.9169C47.8561 16.4392 49.8744 18.4144 52.45 18.4144C55.0523 18.4144 57.09 16.4244 57.09 13.8845C57.09 11.3533 55.0658 9.37047 52.4813 9.37047V9.37ZM52.4813 16.4614C51.102 16.4614 50.0617 15.3527 50.0617 13.8838C50.0617 12.4081 51.0664 11.3372 52.45 11.3372C53.8381 11.3372 54.8844 12.4455 54.8844 13.9159C54.8844 15.3914 53.8738 16.4614 52.4813 16.4614ZM62.6277 9.54609H60.5098V7.38125C60.5098 7.30359 60.4473 7.24031 60.3702 7.24031H58.4453C58.4079 7.2404 58.3721 7.25526 58.3456 7.28166C58.3192 7.30807 58.3042 7.34387 58.3041 7.38125V9.54609H57.3797C57.3425 9.5463 57.3069 9.56126 57.2807 9.58768C57.2545 9.6141 57.2399 9.64983 57.24 9.68703V11.3408C57.2399 11.378 57.2545 11.4137 57.2807 11.4402C57.3069 11.4666 57.3425 11.4816 57.3797 11.4819H58.3041V15.7616C58.3041 17.49 59.1647 18.3669 60.8634 18.3669C61.553 18.3669 62.1252 18.2241 62.6647 17.918C62.6865 17.906 62.7047 17.8884 62.7172 17.8669C62.7298 17.8454 62.7363 17.821 62.7361 17.7961V16.2206C62.736 16.1968 62.7298 16.1733 62.7181 16.1526C62.7064 16.1318 62.6896 16.1143 62.6692 16.1019C62.649 16.0889 62.6256 16.0815 62.6016 16.0804C62.5776 16.0793 62.5537 16.0846 62.5323 16.0958C62.1623 16.2817 61.8042 16.3678 61.4028 16.3678C60.7861 16.3678 60.5097 16.0869 60.5097 15.4597V11.4828H62.6275C62.6647 11.4826 62.7003 11.4676 62.7265 11.4412C62.7527 11.4147 62.7674 11.3789 62.7672 11.3417V9.68797C62.7678 9.66952 62.7647 9.65113 62.758 9.63392C62.7514 9.61671 62.7413 9.60104 62.7283 9.58785C62.7154 9.57465 62.7 9.56422 62.6829 9.55718C62.6658 9.55014 62.6475 9.54663 62.6291 9.54688L62.6277 9.54609ZM70.0053 9.55453V9.28859C70.0053 8.50641 70.3055 8.15766 70.9772 8.15766C71.3787 8.15766 71.7011 8.23734 72.0623 8.35766C72.0835 8.36476 72.106 8.3667 72.1281 8.36332C72.1502 8.35994 72.1711 8.35132 72.1891 8.3382C72.2072 8.32508 72.2218 8.30783 72.2318 8.28789C72.2419 8.26795 72.247 8.24591 72.2467 8.22359L72.2466 6.60219C72.2469 6.5719 72.2374 6.54231 72.2195 6.51792C72.2015 6.49353 72.1761 6.47566 72.147 6.46703C71.7666 6.35359 71.2791 6.23734 70.5478 6.23734C68.7717 6.23734 67.8309 7.23813 67.8309 9.13047V9.53766H66.9066C66.8692 9.53774 66.8333 9.5526 66.8069 9.57901C66.7804 9.60541 66.7655 9.64121 66.7653 9.67859V11.3408C66.7653 11.4184 66.8294 11.4819 66.9066 11.4819H67.8309V18.0814C67.8309 18.1602 67.895 18.2227 67.9722 18.2227H69.8953C69.9741 18.2227 70.0366 18.1602 70.0366 18.0814V11.4823H71.8334L74.5859 18.0814C74.2738 18.7741 73.9661 18.9122 73.5469 18.9122C73.2081 18.9122 72.85 18.8113 72.4859 18.6106C72.4514 18.5932 72.4116 18.5894 72.3744 18.6002C72.356 18.6063 72.3391 18.6163 72.3248 18.6293C72.3104 18.6423 72.299 18.6582 72.2911 18.6759L71.6387 20.1072C71.6237 20.1397 71.6217 20.1767 71.633 20.2107C71.6443 20.2446 71.6682 20.273 71.6997 20.29C72.3803 20.6586 72.9941 20.8161 73.7536 20.8161C75.1744 20.8161 75.9606 20.1533 76.6517 18.3728L79.9898 9.74719C79.9985 9.72586 80.0017 9.7027 79.9991 9.67982C79.9965 9.65695 79.9882 9.63509 79.975 9.61625C79.9625 9.59737 79.9454 9.5819 79.9254 9.57121C79.9055 9.56052 79.8831 9.55495 79.8605 9.555H77.857C77.8277 9.55484 77.799 9.56386 77.775 9.58081C77.751 9.59776 77.7329 9.62179 77.7233 9.64953L75.6708 15.5103L73.4236 9.64563C73.4135 9.61905 73.3956 9.59616 73.3723 9.57998C73.3489 9.5638 73.3212 9.55509 73.2928 9.555H70.0053V9.55453ZM65.728 9.54609H63.8033C63.7659 9.54626 63.7302 9.56115 63.7038 9.58755C63.6773 9.61394 63.6624 9.64969 63.6622 9.68703V18.0814C63.6622 18.1602 63.7261 18.2227 63.8033 18.2227H65.728C65.8053 18.2227 65.8692 18.1602 65.8692 18.0814V9.68766C65.8693 9.6691 65.8657 9.65071 65.8586 9.63355C65.8515 9.6164 65.8411 9.60081 65.828 9.58769C65.8148 9.57458 65.7992 9.56419 65.7821 9.55713C65.7649 9.55007 65.7465 9.54648 65.728 9.54656V9.54609ZM64.7767 5.72359C64.0142 5.72359 63.3961 6.34078 63.3961 7.10297C63.3961 7.28428 63.4318 7.46382 63.5011 7.63134C63.5705 7.79885 63.6722 7.95106 63.8004 8.07926C63.9286 8.20747 64.0808 8.30917 64.2484 8.37854C64.4159 8.44792 64.5954 8.48361 64.7767 8.48359C65.5392 8.48359 66.1559 7.86578 66.1559 7.10297C66.1559 6.73719 66.0105 6.38641 65.7519 6.12775C65.4933 5.86909 65.1425 5.72372 64.7767 5.72359Z" fill="#1ED760"/>
</g>
<defs>
<clipPath id="clip0_647_206">
<rect width="80" height="25" fill="white"/>
</clipPath>
</defs>
</svg>
