<svg
    width="135"
    height="42"
    viewBox="0 0 135 42"
    fill="none"
    xmlns="http://www.w3.org/2000/svg"
  >
    <path
      fill-rule="evenodd"
      clip-rule="evenodd"
      d="M24.617 41.5112L9.27087 20.7842L24.6056 0.0481102L35.3878 0.0446777L20.0531 20.7808L35.3993 41.5078L24.617 41.5112Z"
      fill="#FEA920"
    />
    <path
      fill-rule="evenodd"
      clip-rule="evenodd"
      d="M8.14502 39.7103L0 36.4301V3.40492L8.14502 0V39.7103Z"
      fill="#FEA920"
    />
    <path
      d="M51.2728 24.4557L56.8367 26.0335C56.2822 28.0487 55.1285 29.7061 53.3757 31.0059C51.6229 32.3056 49.4323 32.9539 46.8039 32.9509C43.6499 32.9509 40.97 31.8994 38.7641 29.7965C36.5582 27.6936 35.4557 24.8749 35.4564 21.3403C35.4564 17.9521 36.5296 15.1921 38.676 13.0602C40.8224 10.9284 43.3711 9.8605 46.3222 9.85669C49.7103 9.85669 52.3754 10.8425 54.3173 12.8143C56.2593 14.786 57.2307 17.5284 57.2314 21.0417C57.2314 22.153 57.1876 22.8395 57.0998 23.1011H41.9402C41.9982 24.2994 42.5096 25.2997 43.4745 26.1021C44.4306 26.9027 45.644 27.3305 46.8908 27.3069C49.144 27.3046 50.6046 26.3542 51.2728 24.4557ZM42.0718 18.8038H50.7911C50.7393 17.8277 50.3252 16.9061 49.6298 16.2192C48.9136 15.4892 47.8401 15.1242 46.4091 15.1242C45.1239 15.1242 44.1018 15.5037 43.3429 16.2626C42.5839 17.0216 42.1602 17.8686 42.0718 18.8038Z"
      fill="white"
    />
    <path
      d="M68.1841 19.8118V32.2976H61.5242V10.5238H67.9645V13.0214C68.519 12.0565 69.3733 11.304 70.5273 10.764C71.6285 10.2359 72.8333 9.95918 74.0546 9.95398C76.6541 9.95398 78.6254 10.7644 79.9686 12.3852C81.3118 14.0061 81.9838 16.0873 81.9846 18.6287V32.2976H75.3269V19.7683C75.3269 18.6287 75.0275 17.7157 74.4288 17.0293C73.83 16.3428 72.9467 15.9995 71.779 15.9995C70.6974 15.9995 69.8282 16.3577 69.1715 17.0739C68.5148 17.7901 68.1857 18.7027 68.1841 19.8118Z"
      fill="white"
    />
    <path
      d="M94.2508 19.8118V32.2976H87.592V10.5238H94.0323V13.0214C94.5875 12.0565 95.4418 11.304 96.5951 10.764C97.6963 10.2359 98.9012 9.95918 100.122 9.95398C102.72 9.95398 104.692 10.7644 106.036 12.3852C107.381 14.0061 108.052 16.0873 108.049 18.6287V32.2976H101.392V19.7683C101.392 18.6287 101.093 17.7157 100.494 17.0293C99.8955 16.3428 99.0119 15.9995 97.8433 15.9995C96.7633 15.9995 95.8945 16.3577 95.237 17.0739C94.5795 17.7901 94.2508 18.7027 94.2508 19.8118Z"
      fill="white"
    />
    <path
      d="M116.463 36.366L119.53 29.3629L110.377 10.5237H117.825L123.126 22.1777L127.945 10.5237H135L122.685 38.2035"
      fill="white"
    />
  </svg>